<svg xmlns="http://www.w3.org/2000/svg" data-name="Layer 1" viewBox="0 0 48 48"><path fill="#6a9fd3" stroke="#1b2a2b" stroke-linecap="round" stroke-linejoin="round" stroke-width="2" d="M42,23.5A8.51,8.51,0,0,1,33.5,32H32V24c0-1.66-3.58-3-8-3s-8,1.34-8,3v8H13.5A7.49,7.49,0,0,1,13,17v0a11,11,0,0,1,21.83-1.89A8.5,8.5,0,0,1,42,23.5Z"/><path fill="#9ab0bd" stroke="#1b2a2b" stroke-linecap="round" stroke-linejoin="round" stroke-width="2" d="M32,29v5c0,1-1.42,2-3.57,2.5a19.87,19.87,0,0,1-8.86,0C17.42,36,16,35,16,34V29c0,1,1.42,2,3.57,2.5a19.87,19.87,0,0,0,8.86,0C30.58,31,32,30,32,29Z"/><path fill="#c1dff7" stroke="#1b2a2b" stroke-linecap="round" stroke-linejoin="round" stroke-width="2" d="M32,24c0,1-1.42,2-3.57,2.5a19.87,19.87,0,0,1-8.86,0C17.42,26,16,25,16,24c0-1.66,3.58-3,8-3S32,22.34,32,24Z"/><path fill="#c1dff7" stroke="#1b2a2b" stroke-linecap="round" stroke-linejoin="round" stroke-width="2" d="M32,24v5c0,1-1.42,2-3.57,2.5a19.87,19.87,0,0,1-8.86,0C17.42,31,16,30,16,29V24c0,1,1.42,2,3.57,2.5a19.87,19.87,0,0,0,8.86,0C30.58,26,32,25,32,24Z"/><path fill="#637984" stroke="#1b2a2b" stroke-linecap="round" stroke-linejoin="round" stroke-width="2" d="M32,34v5c0,1.66-3.58,3-8,3s-8-1.34-8-3V34c0,1,1.42,2,3.57,2.5a19.87,19.87,0,0,0,8.86,0C30.58,36,32,35,32,34Z"/></svg>